<svg xmlns="http://www.w3.org/2000/svg" width="44.275" height="37.928" viewBox="0 0 44.275 37.928">
  <g id="Groupe_166" data-name="Groupe 166" transform="translate(-120 -733.073)">
    <g id="location" transform="translate(120 733.073)">
      <path id="Tracé_2528" data-name="Tracé 2528" d="M61.086,28.444a5.937,5.937,0,1,0-5.932,6.2,6.07,6.07,0,0,0,5.932-6.2Zm-10.458,0a4.531,4.531,0,1,1,4.527,4.732,4.632,4.632,0,0,1-4.527-4.732Z" transform="translate(-32.895 -15.297)" fill="#717171"/>
      <path id="Tracé_2529" data-name="Tracé 2529" d="M48.787,41.73,43.475,29.8a.657.657,0,0,0-.609-.359H32.811l.184-.255C36.864,23.7,38.811,18.9,38.783,14.918c0-5.722-5.413-10.359-12.09-10.359S14.6,9.2,14.6,14.917c-.028,3.979,1.919,8.78,5.788,14.267.061.087.123.17.184.255H10.52a.657.657,0,0,0-.609.359L4.6,41.73a.491.491,0,0,0,.072.516.688.688,0,0,0,.537.241h42.97a.688.688,0,0,0,.537-.241.491.491,0,0,0,.072-.516ZM15.907,14.916c0-5.1,4.829-9.239,10.786-9.239S37.48,9.814,37.48,14.917c.056,7.932-8.6,17.713-10.786,20.059-2.188-2.345-10.843-12.123-10.786-20.06ZM26.2,36.22a.725.725,0,0,0,.993,0,60.588,60.588,0,0,0,4.8-5.666H42.416l.834,1.874L22.883,38.634l-7.26-8.081h5.769a60.589,60.589,0,0,0,4.8,5.667Zm-3.336,3.605h0l12.15-3.7,4.713,5.246H17.793ZM10.97,30.554h3.009l7.613,8.474L13.9,41.37H6.154Zm30.4,10.817-5.068-5.641,7.411-2.258,3.517,7.9Z" transform="translate(-4.556 -4.559)" fill="#717171"/>
    </g>
  </g>
</svg>
