<svg xmlns="http://www.w3.org/2000/svg" width="33.97" height="36.291" viewBox="0 0 33.97 36.291">
  <g id="settings" transform="translate(-99 -213.271)">
    <path id="Tracé_2530" data-name="Tracé 2530" d="M18.051,36.291H15.919a3.243,3.243,0,0,1-3.127-3.341V32.18a13.24,13.24,0,0,1-2.13-.944l-.511.546a2.988,2.988,0,0,1-4.423,0l-1.507-1.61a3.5,3.5,0,0,1,0-4.725l.511-.546a15.226,15.226,0,0,1-.884-2.275H3.127A3.243,3.243,0,0,1,0,19.285V17.007a3.243,3.243,0,0,1,3.127-3.341h.721a15.229,15.229,0,0,1,.884-2.275l-.511-.546a3.5,3.5,0,0,1,0-4.725L5.729,4.51a2.987,2.987,0,0,1,4.423,0l.511.546a13.253,13.253,0,0,1,2.13-.944v-.77A3.243,3.243,0,0,1,15.919,0h2.132a3.243,3.243,0,0,1,3.127,3.341v.771a13.241,13.241,0,0,1,2.13.944l.511-.546a2.988,2.988,0,0,1,4.423,0l1.507,1.61a3.5,3.5,0,0,1,0,4.725l-.511.546a15.225,15.225,0,0,1,.884,2.275h.721a3.243,3.243,0,0,1,3.127,3.341v2.278a3.243,3.243,0,0,1-3.127,3.341h-.721a15.228,15.228,0,0,1-.884,2.275l.511.546a3.5,3.5,0,0,1,0,4.725l-1.507,1.61a2.987,2.987,0,0,1-4.423,0l-.511-.546a13.253,13.253,0,0,1-2.13.944v.771A3.243,3.243,0,0,1,18.051,36.291ZM10.995,29a11.329,11.329,0,0,0,3.041,1.349,1.053,1.053,0,0,1,.747,1.029v1.57a1.179,1.179,0,0,0,1.137,1.214h2.132a1.179,1.179,0,0,0,1.137-1.214v-1.57a1.053,1.053,0,0,1,.747-1.029A11.33,11.33,0,0,0,22.975,29a.948.948,0,0,1,1.21.163l1.041,1.112a1.086,1.086,0,0,0,1.607,0l1.508-1.611a1.274,1.274,0,0,0,0-1.717L27.3,25.838a1.118,1.118,0,0,1-.153-1.293A13.017,13.017,0,0,0,28.41,21.3a1.009,1.009,0,0,1,.964-.8h1.469a1.179,1.179,0,0,0,1.137-1.214V17.007a1.179,1.179,0,0,0-1.137-1.214H29.373a1.009,1.009,0,0,1-.964-.8,13.02,13.02,0,0,0-1.262-3.249,1.118,1.118,0,0,1,.153-1.293l1.041-1.112a1.273,1.273,0,0,0,0-1.717L26.834,6.013a1.086,1.086,0,0,0-1.607,0L24.185,7.126a.948.948,0,0,1-1.21.163A11.33,11.33,0,0,0,19.934,5.94a1.053,1.053,0,0,1-.747-1.029V3.341a1.179,1.179,0,0,0-1.137-1.214H15.919a1.179,1.179,0,0,0-1.137,1.214v1.57a1.053,1.053,0,0,1-.747,1.029,11.33,11.33,0,0,0-3.041,1.349.948.948,0,0,1-1.21-.163L8.744,6.013a1.086,1.086,0,0,0-1.607,0L5.629,7.624a1.274,1.274,0,0,0,0,1.717L6.67,10.453a1.118,1.118,0,0,1,.153,1.293A13.017,13.017,0,0,0,5.56,14.995a1.009,1.009,0,0,1-.964.8H3.127A1.179,1.179,0,0,0,1.99,17.007v2.278A1.179,1.179,0,0,0,3.127,20.5H4.6a1.009,1.009,0,0,1,.964.8,13.02,13.02,0,0,0,1.262,3.249,1.118,1.118,0,0,1-.153,1.293L5.629,26.95a1.273,1.273,0,0,0,0,1.717l1.508,1.611a1.086,1.086,0,0,0,1.607,0l1.041-1.112A.953.953,0,0,1,10.995,29Z" transform="translate(99 213.271)" fill="#717171"/>
    <path id="Tracé_2531" data-name="Tracé 2531" d="M152.163,160.192a7.8,7.8,0,1,1,7.563-7.8A7.691,7.691,0,0,1,152.163,160.192Zm0-13.493a5.7,5.7,0,1,0,5.526,5.7A5.62,5.62,0,0,0,152.163,146.7Z" transform="translate(-36.122 78.935)" fill="#717171"/>
  </g>
</svg>
