<svg xmlns="http://www.w3.org/2000/svg" width="33.52" height="33.512" viewBox="0 0 33.52 33.512">
  <path id="store" d="M31.839,18.977v11.8a2.8,2.8,0,0,1-2.793,2.793H4.47a2.8,2.8,0,0,1-2.793-2.793v-11.8a.559.559,0,0,1,1.117,0v11.8A1.677,1.677,0,0,0,4.47,32.451h6.074V23.026a2.8,2.8,0,0,1,2.793-2.793h6.842a2.8,2.8,0,0,1,2.793,2.793v7.191a.559.559,0,1,1-1.117,0V23.026a1.678,1.678,0,0,0-1.676-1.676H13.337a1.678,1.678,0,0,0-1.676,1.676v9.425H16.2v-8.8a.559.559,0,0,1,1.117,0v8.8H29.046a1.678,1.678,0,0,0,1.676-1.676v-11.8a.559.559,0,0,1,1.117,0ZM3.632,8.993a.559.559,0,0,0,.559.559c30.389,0,28.883.054,29.1-.116a.555.555,0,0,0,.213-.365c.031-.224.232.328-3.671-8.677a.559.559,0,0,0-.513-.336H4.191a.559.559,0,0,0-.512.336L.048,8.771C-.016,8.919,0,8.684,0,12.458a4.606,4.606,0,0,0,8.656,2.194,4.609,4.609,0,0,0,8.1,0,4.609,4.609,0,0,0,8.1,0,4.607,4.607,0,0,0,8.657-2.2.559.559,0,0,0-1.117,0,3.491,3.491,0,0,1-6.982,0,.559.559,0,1,0-1.117,0,3.491,3.491,0,0,1-6.982,0,.559.559,0,0,0-1.117,0,3.491,3.491,0,1,1-6.982-.028.559.559,0,0,0-1.117,0,3.491,3.491,0,1,1-6.982.028V9.108L4.557,1.173h24.4L32.1,8.434H4.191a.558.558,0,0,0-.559.559Z" transform="translate(0.001 -0.056)" fill="#717171"/>
</svg>
